<svg xmlns="http://www.w3.org/2000/svg" viewBox="0 0 24 24" fill="#FFFFFF">
  <path d="M2.25 18.25c.69 0 1.25.56 1.25 1.25v.75h-1a.75.75 0 0 1-.75-.75v-1.25h.5Zm0-3A4.25 4.25 0 0 1 6.5 19.5v.75H5v-.75a2.75 2.75 0 0 0-2.75-2.75h-.5v-1.5h.5Z"/>
  <path d="M2.25 12.25A7.25 7.25 0 0 1 9.5 19.5v.75H8v-.75a5.75 5.75 0 0 0-5.75-5.75h-.5v-1.5h.5Z"/>
  <path d="M21.5 3.75a.75.75 0 0 1 .75.75v15a.75.75 0 0 1-.75.75H11v-.75a8.74 8.74 0 0 0-.294-2.25H18.5a.75.75 0 0 0 .75-.75v-9a.75.75 0 0 0-.75-.75h-13a.75.75 0 0 0-.75.75v3.614a8.747 8.747 0 0 0-2.5-.364h-.5V4.5a.75.75 0 0 1 .75-.75h19Z"/>
  <path d="M17.75 8.25v7.5h-7.594a8.783 8.783 0 0 0-3.906-4.032V8.25h11.5Z"/>
</svg>
